<svg width="737" height="624" viewBox="0 0 737 624" fill="none" xmlns="http://www.w3.org/2000/svg">
<path d="M11.863 3.20677C14.1306 2.09935 18.3599 0.897007 21.2603 0.527866C24.1606 0.158726 55.4849 0.032163 90.8696 0.253647C147.517 0.591147 156.345 0.865366 164.698 2.54232C169.918 3.57591 177.038 5.75912 180.518 7.37279C185.043 9.48216 189.399 12.9099 195.811 19.4068C200.747 24.406 215.196 40.8169 227.937 55.8779C240.667 70.9388 260.611 94.1736 272.255 107.515C283.888 120.857 302.187 141.94 312.902 154.365C323.618 166.789 343.805 190.045 357.758 206.044C371.712 222.044 392.363 245.89 403.637 259.042C414.922 272.194 425.68 285.483 427.536 288.574C429.403 291.664 431.702 297.285 432.641 301.051C433.801 305.691 434.128 309.604 433.633 313.179C433.232 316.08 431.945 321.301 430.785 324.781C429.614 328.261 426.988 333.725 424.942 336.91C422.896 340.095 416.167 348.406 409.997 355.367C403.817 362.328 389.547 378.707 378.272 391.754C366.987 404.811 348.013 426.643 336.095 440.269C324.177 453.896 305.889 474.969 295.458 487.087C285.027 499.205 271.506 514.888 265.42 521.934C259.335 528.979 241.258 549.683 225.268 567.929C209.279 586.175 193.375 603.63 189.936 606.709C186.498 609.789 180.36 613.934 176.299 615.927C172.154 617.952 164.993 620.294 159.952 621.254C152.6 622.656 140.609 623.057 93.5063 623.479C51.0657 623.859 34.5071 623.658 30.2251 622.73C27.0294 622.034 21.4606 620.083 17.8325 618.406C13.5083 616.402 9.99619 613.808 7.6126 610.865C5.61924 608.397 3.23564 604.252 2.31807 601.636C1.40049 599.021 0.662207 595.467 0.683301 593.726C0.704395 591.986 1.78018 588.326 3.07744 585.605C4.42744 582.768 15.6282 568.983 29.1704 553.479C42.2169 538.545 64.5341 512.969 78.7407 496.663C91.4427 482.086 110.61 460.059 123.878 444.811L128.353 439.668C141.421 424.628 159.456 403.809 168.431 393.399L171.292 390.077C179.472 380.58 187.985 370.694 191.128 367.032C194.651 362.94 203.584 352.709 210.977 344.293C219.215 334.917 225.469 326.753 227.135 323.199C228.728 319.813 230.057 314.772 230.342 311.07C230.784 305.406 230.458 304.046 227.293 298.15C225.079 294.005 214.743 281.243 199.545 263.873C186.224 248.643 165.046 224.565 152.474 210.347C139.913 196.13 113.092 165.766 92.8946 142.847C72.6868 119.929 49.2622 93.4458 40.8247 83.9747C32.3872 74.5037 21.2603 61.9318 16.1028 56.0255C10.9454 50.1193 5.64033 42.9158 4.30088 40.0154C2.96143 37.115 1.32666 31.6517 0.672754 27.8865C-0.202637 22.9083 -0.22373 19.8076 0.609473 16.5486C1.23174 14.0806 3.09854 10.5263 4.74385 8.63841C6.39971 6.75052 9.59541 4.30365 11.863 3.20677Z" fill="#F1D8FF"/>
<path d="M315.571 3.1013C317.859 2.07826 321.635 0.907554 323.956 0.475132C326.276 0.0532568 357.358 -0.12604 393.038 0.0954442C444.222 0.401304 459.841 0.812632 467.129 2.05716C472.835 3.02748 478.879 4.90482 482.95 6.96146C486.578 8.78607 492.094 12.699 495.205 15.6626C498.327 18.6158 514.938 37.1677 532.119 56.8798C549.311 76.6025 575.477 106.756 590.264 123.895C605.051 141.033 624.52 163.551 633.506 173.929C642.492 184.297 656.52 200.423 664.672 209.746C672.815 219.07 689.067 237.727 700.795 251.217C712.513 264.706 723.83 277.995 725.95 280.748C728.07 283.501 731.276 288.848 733.069 292.613C736.033 298.836 736.328 300.397 736.275 309.488C736.222 317.461 735.695 320.794 733.691 325.836C732.31 329.316 729.493 334.611 727.426 337.617C725.37 340.612 715.329 352.477 705.13 363.984C694.921 375.48 680.682 391.817 673.49 400.265C666.286 408.713 646.89 431.262 630.363 450.363C613.847 469.463 592.247 494.343 582.354 505.66C572.461 516.977 562.726 528.167 560.701 530.54C558.687 532.913 549.701 543.354 540.736 553.743C531.771 564.132 518.567 579.277 511.405 587.398C504.244 595.519 495.922 604.242 492.906 606.773C489.9 609.304 485.302 612.605 482.686 614.103C480.07 615.601 474.618 617.72 470.557 618.828C464.672 620.42 457.595 620.99 435.752 621.602C420.67 622.034 390.053 622.34 367.725 622.287C328.238 622.203 326.951 622.129 321.055 619.83C316.826 618.174 313.873 616.107 311.289 612.974C308.814 609.986 307.172 606.558 306.363 602.691C305.435 598.24 305.446 595.667 306.437 591.617C307.144 588.685 309.496 584.002 311.711 581.07C313.915 578.17 321.066 569.627 327.594 562.086C334.133 554.545 346.431 540.349 354.921 530.529C363.411 520.71 381.963 499.353 396.149 483.069C410.334 466.784 428.349 446.091 436.185 437.105C444.021 428.119 450.697 420.515 451.024 420.23C451.351 419.945 456.604 414.008 462.7 407.047C468.806 400.086 483.741 382.82 495.901 368.677C508.062 354.523 520.634 339.81 523.819 335.961C527.004 332.122 530.79 326.374 532.225 323.188C534.186 318.822 534.83 315.584 534.83 310.015C534.84 304.088 534.271 301.483 531.961 296.832C530.084 293.024 519.009 279.556 499.825 257.703C483.73 239.372 460.369 212.794 447.913 198.64C435.468 184.486 415.07 161.283 402.593 147.066C390.127 132.849 373.262 113.685 365.12 104.457C356.978 95.2388 342.56 78.8701 333.058 68.0701C323.565 57.2806 314.516 46.5544 312.945 44.2341C311.363 41.9138 309.285 38.0009 308.315 35.5329C307.344 33.065 306.268 28.5615 305.91 25.5134C305.541 22.3283 305.815 17.9619 306.553 15.2302C307.26 12.6251 308.642 9.23958 309.622 7.71029C310.603 6.19154 313.282 4.1138 315.571 3.1013Z" fill="#F1D8FF"/>
</svg>
